<svg width="28" height="31" viewBox="0 0 28 31" fill="none" xmlns="http://www.w3.org/2000/svg">
<path d="M2.14666 12.3567C2.20365 11.6466 2.52598 10.9841 3.04947 10.5011C3.57296 10.018 4.25919 9.74985 4.9715 9.75H22.0537C22.766 9.74985 23.4522 10.018 23.9757 10.5011C24.4992 10.9841 24.8215 11.6466 24.8785 12.3567L26.0161 26.5233C26.0474 26.9132 25.9976 27.3053 25.8699 27.675C25.7422 28.0447 25.5394 28.3839 25.2742 28.6714C25.009 28.9588 24.6871 29.1882 24.3289 29.3452C23.9706 29.5021 23.5838 29.5832 23.1927 29.5833H3.8325C3.44139 29.5832 3.05454 29.5021 2.6963 29.3452C2.33807 29.1882 2.01621 28.9588 1.75098 28.6714C1.48576 28.3839 1.28292 28.0447 1.15524 27.675C1.02756 27.3053 0.977793 26.9132 1.00908 26.5233L2.14666 12.3567V12.3567Z" stroke="white" stroke-width="2" stroke-linecap="round" stroke-linejoin="round"/>
<path d="M19.179 14V6.91667C19.179 5.41377 18.582 3.97243 17.5193 2.90973C16.4566 1.84702 15.0153 1.25 13.5124 1.25C12.0095 1.25 10.5681 1.84702 9.50543 2.90973C8.44272 3.97243 7.8457 5.41377 7.8457 6.91667V14" stroke="white" stroke-width="2" stroke-linecap="round" stroke-linejoin="round"/>
</svg>
