<svg width="34" height="34" viewBox="0 0 34 34" fill="none" xmlns="http://www.w3.org/2000/svg">
<path d="M26.2087 12.75C25.0161 12.7503 23.8634 12.3208 22.9619 11.5402C22.0603 10.7596 21.4703 9.68027 21.2999 8.49997L12.7503 8.49997C11.6232 8.49997 10.5422 8.94774 9.74512 9.74477C8.94809 10.5418 8.50033 11.6228 8.50033 12.75L8.50033 16.5608L9.87449 15.1866C9.97176 15.0822 10.0891 14.9985 10.2194 14.9404C10.3497 14.8824 10.4904 14.8511 10.6331 14.8486C10.7757 14.8461 10.9175 14.8724 11.0498 14.9258C11.1821 14.9792 11.3022 15.0588 11.4031 15.1597C11.504 15.2606 11.5836 15.3807 11.637 15.513C11.6904 15.6453 11.7167 15.787 11.7142 15.9297C11.7116 16.0724 11.6804 16.2131 11.6223 16.3434C11.5643 16.4737 11.4805 16.591 11.3762 16.6883L8.18866 19.8758C7.98944 20.0748 7.71939 20.1865 7.43783 20.1865C7.15626 20.1865 6.88621 20.0748 6.68699 19.8758L3.49949 16.6883C3.3951 16.591 3.31137 16.4737 3.2533 16.3434C3.19523 16.2131 3.16401 16.0724 3.16149 15.9297C3.15897 15.787 3.18521 15.6453 3.23865 15.513C3.29209 15.3807 3.37163 15.2606 3.47252 15.1597C3.57342 15.0588 3.6936 14.9792 3.8259 14.9258C3.9582 14.8724 4.0999 14.8461 4.24256 14.8486C4.38523 14.8511 4.52592 14.8824 4.65626 14.9404C4.78659 14.9985 4.90389 15.0822 5.00116 15.1866L6.37533 16.5608L6.37533 12.75C6.37533 11.0592 7.04698 9.43771 8.24252 8.24216C9.43806 7.04662 11.0596 6.37497 12.7503 6.37497L21.4557 6.37497C21.7989 5.23644 22.5396 4.25903 23.5429 3.62075C24.5462 2.98247 25.7453 2.72578 26.922 2.89743C28.0987 3.06908 29.1745 3.65765 29.9537 4.55595C30.7328 5.45425 31.1634 6.60252 31.167 7.79164C31.167 9.10667 30.6446 10.3678 29.7147 11.2977C28.7849 12.2276 27.5237 12.75 26.2087 12.75ZM26.2087 10.625C26.9601 10.625 27.6808 10.3265 28.2121 9.79511C28.7435 9.26375 29.042 8.54308 29.042 7.79164C29.042 7.04019 28.7435 6.31952 28.2121 5.78817C27.6808 5.25682 26.9601 4.9583 26.2087 4.9583C25.4572 4.9583 24.7365 5.25681 24.2052 5.78817C23.6738 6.31952 23.3753 7.04019 23.3753 7.79164C23.3753 8.54308 23.6738 9.26375 24.2052 9.79511C24.7365 10.3265 25.4572 10.625 26.2087 10.625ZM7.79199 31.1666C6.84163 31.1664 5.91135 30.893 5.11194 30.3791C4.31252 29.8652 3.67764 29.1323 3.28289 28.2678C2.88814 27.4033 2.75016 26.4436 2.88537 25.5029C3.02058 24.5622 3.42328 23.6802 4.04554 22.9618C4.66779 22.2435 5.48337 21.7191 6.39517 21.4512C7.30697 21.1832 8.27658 21.1829 9.18854 21.4503C10.1005 21.7178 10.9164 22.2417 11.5391 22.9596C12.1617 23.6776 12.565 24.5594 12.7007 25.5L21.2503 25.5C22.3775 25.5 23.4585 25.0522 24.2555 24.2552C25.0526 23.4581 25.5003 22.3771 25.5003 21.25L25.5003 18.5016L24.1262 19.8758C23.9247 20.0635 23.6583 20.1657 23.3831 20.1608C23.1078 20.1559 22.8452 20.0444 22.6505 19.8498C22.4559 19.6551 22.3444 19.3925 22.3395 19.1172C22.3346 18.842 22.4368 18.5756 22.6245 18.3741L25.812 15.1866C26.0112 14.9877 26.2813 14.8759 26.5628 14.8759C26.8444 14.8759 27.1144 14.9877 27.3137 15.1866L30.5012 18.3741C30.6055 18.4714 30.6893 18.5887 30.7473 18.719C30.8054 18.8494 30.8366 18.9901 30.8392 19.1327C30.8417 19.2754 30.8154 19.4171 30.762 19.5494C30.7086 19.6817 30.629 19.8019 30.5281 19.9028C30.4272 20.0037 30.3071 20.0832 30.1748 20.1366C30.0425 20.1901 29.9007 20.2163 29.7581 20.2138C29.6154 20.2113 29.4747 20.1801 29.3444 20.122C29.2141 20.0639 29.0968 19.9802 28.9995 19.8758L27.6253 18.5016L27.6253 21.25C27.6253 22.9407 26.9537 24.5622 25.7581 25.7578C24.5626 26.9533 22.9411 27.625 21.2503 27.625L12.5449 27.625C11.9357 29.6735 10.0374 31.1666 7.79199 31.1666ZM7.79199 29.0416C8.54344 29.0416 9.26411 28.7431 9.79546 28.2118C10.3268 27.6804 10.6253 26.9598 10.6253 26.2083C10.6253 25.4569 10.3268 24.7362 9.79546 24.2048C9.26411 23.6735 8.54344 23.375 7.79199 23.375C7.04055 23.375 6.31988 23.6735 5.78852 24.2048C5.25717 24.7362 4.95866 25.4569 4.95866 26.2083C4.95866 26.9597 5.25717 27.6804 5.78852 28.2118C6.31988 28.7431 7.04055 29.0416 7.79199 29.0416Z" fill="white"/>
</svg>
