<svg width="12" height="12" viewBox="0 0 12 12" fill="none" xmlns="http://www.w3.org/2000/svg">
<path d="M4 9.5C4.26522 9.5 4.51957 9.39464 4.70711 9.20711C4.89464 9.01957 5 8.76522 5 8.5C5 8.23478 4.89464 7.98043 4.70711 7.79289C4.51957 7.60536 4.26522 7.5 4 7.5C3.73478 7.5 3.48043 7.60536 3.29289 7.79289C3.10536 7.98043 3 8.23478 3 8.5C3 8.76522 3.10536 9.01957 3.29289 9.20711C3.48043 9.39464 3.73478 9.5 4 9.5V9.5ZM9 9.5C9.26522 9.5 9.51957 9.39464 9.70711 9.20711C9.89464 9.01957 10 8.76522 10 8.5C10 8.23478 9.89464 7.98043 9.70711 7.79289C9.51957 7.60536 9.26522 7.5 9 7.5C8.73478 7.5 8.48043 7.60536 8.29289 7.79289C8.10536 7.98043 8 8.23478 8 8.5C8 8.76522 8.10536 9.01957 8.29289 9.20711C8.48043 9.39464 8.73478 9.5 9 9.5V9.5Z" stroke="white" stroke-width="0.6" stroke-miterlimit="1.5" stroke-linecap="round" stroke-linejoin="round"/>
<path d="M5.025 8.5H7.5V3.3C7.5 3.22044 7.46839 3.14413 7.41213 3.08787C7.35587 3.03161 7.27956 3 7.2 3H0.5M2.825 8.5H1.8C1.7606 8.5 1.72159 8.49224 1.68519 8.47716C1.6488 8.46209 1.61573 8.43999 1.58787 8.41213C1.56001 8.38427 1.53791 8.3512 1.52284 8.31481C1.50776 8.27841 1.5 8.2394 1.5 8.2V5.75" stroke="white" stroke-width="0.6" stroke-linecap="round"/>
<path d="M1 4.5H3" stroke="white" stroke-width="0.6" stroke-linecap="round" stroke-linejoin="round"/>
<path d="M7.5 4.5H10.305C10.363 4.50001 10.4197 4.51683 10.4684 4.54843C10.517 4.58002 10.5554 4.62502 10.579 4.678L11.474 6.692C11.4911 6.73024 11.4999 6.77163 11.5 6.8135V8.2C11.5 8.2394 11.4922 8.27841 11.4772 8.31481C11.4621 8.3512 11.44 8.38427 11.4121 8.41213C11.3843 8.43999 11.3512 8.46209 11.3148 8.47716C11.2784 8.49224 11.2394 8.5 11.2 8.5H10.25M7.5 8.5H8" stroke="white" stroke-width="0.6" stroke-linecap="round"/>
</svg>
