<svg width="16" height="17" viewBox="0 0 16 17" fill="none" xmlns="http://www.w3.org/2000/svg">
<path d="M7.99984 8.74992C8.3665 8.74992 8.6805 8.61925 8.94184 8.35792C9.20273 8.09703 9.33317 7.78325 9.33317 7.41659C9.33317 7.04992 9.20273 6.73592 8.94184 6.47459C8.6805 6.2137 8.3665 6.08325 7.99984 6.08325C7.63317 6.08325 7.31939 6.2137 7.0585 6.47459C6.79717 6.73592 6.6665 7.04992 6.6665 7.41659C6.6665 7.78325 6.79717 8.09703 7.0585 8.35792C7.31939 8.61925 7.63317 8.74992 7.99984 8.74992ZM7.99984 15.4166C6.21095 13.8944 4.87495 12.4804 3.99184 11.1746C3.10828 9.86925 2.6665 8.66103 2.6665 7.54992C2.6665 5.88325 3.20273 4.55547 4.27517 3.56659C5.34717 2.5777 6.58873 2.08325 7.99984 2.08325C9.41095 2.08325 10.6525 2.5777 11.7245 3.56659C12.7969 4.55547 13.3332 5.88325 13.3332 7.54992C13.3332 8.66103 12.8916 9.86925 12.0085 11.1746C11.1249 12.4804 9.78873 13.8944 7.99984 15.4166Z" fill="#FCB700"/>
</svg>
