<svg width="16" height="17" viewBox="0 0 16 17" fill="none" xmlns="http://www.w3.org/2000/svg">
<path d="M2 6.788V11.75C2 12.2804 2.21071 12.7891 2.58579 13.1642C2.96086 13.5393 3.46957 13.75 4 13.75H12C12.5304 13.75 13.0391 13.5393 13.4142 13.1642C13.7893 12.7891 14 12.2804 14 11.75V5.75C14 5.21957 13.7893 4.71086 13.4142 4.33579C13.0391 3.96071 12.5304 3.75 12 3.75H4C3.46957 3.75 2.96086 3.96071 2.58579 4.33579C2.21071 4.71086 2 5.21957 2 5.75V6.788ZM4 4.75H12C12.2652 4.75 12.5196 4.85536 12.7071 5.04289C12.8946 5.23043 13 5.48478 13 5.75V6.49L8 9.182L3 6.49V5.75C3 5.48478 3.10536 5.23043 3.29289 5.04289C3.48043 4.85536 3.73478 4.75 4 4.75ZM3 7.626L7.763 10.19C7.83584 10.2292 7.91727 10.2497 8 10.2497C8.08273 10.2497 8.16416 10.2292 8.237 10.19L13 7.626V11.75C13 12.0152 12.8946 12.2696 12.7071 12.4571C12.5196 12.6446 12.2652 12.75 12 12.75H4C3.73478 12.75 3.48043 12.6446 3.29289 12.4571C3.10536 12.2696 3 12.0152 3 11.75V7.626Z" fill="#FCB700"/>
</svg>
