<svg width="14" height="14" viewBox="0 0 14 14" fill="none" xmlns="http://www.w3.org/2000/svg">
<path d="M12.4151 4.8275L8.94385 4.32301L7.39209 1.17711C7.34971 1.09098 7.27998 1.02125 7.19385 0.978869C6.97783 0.872228 6.71533 0.961095 6.60732 1.17711L5.05556 4.32301L1.58428 4.8275C1.48857 4.84117 1.40107 4.88629 1.33408 4.95465C1.25309 5.03789 1.20846 5.14989 1.21 5.26602C1.21154 5.38215 1.25912 5.49292 1.34228 5.57399L3.85381 8.02262L3.26045 11.4802C3.24653 11.5607 3.25543 11.6434 3.28614 11.719C3.31685 11.7947 3.36813 11.8602 3.43417 11.9081C3.50022 11.9561 3.57838 11.9846 3.6598 11.9904C3.74122 11.9962 3.82264 11.9791 3.89482 11.941L6.9997 10.3086L10.1046 11.941C10.1894 11.9861 10.2878 12.0011 10.3821 11.9847C10.62 11.9437 10.78 11.7181 10.739 11.4802L10.1456 8.02262L12.6571 5.57399C12.7255 5.50699 12.7706 5.41949 12.7843 5.32379C12.8212 5.08453 12.6544 4.86305 12.4151 4.8275Z" fill="#BABABA"/>
</svg>
