<svg width="17" height="16" viewBox="0 0 17 16" fill="none" xmlns="http://www.w3.org/2000/svg">
<path d="M14.5618 5.51715L10.5946 4.94058L8.82115 1.34527C8.77271 1.24683 8.69302 1.16714 8.59458 1.11871C8.34771 0.996832 8.04771 1.09839 7.92427 1.34527L6.15083 4.94058L2.18365 5.51715C2.07427 5.53277 1.97427 5.58433 1.89771 5.66246C1.80515 5.75759 1.75415 5.88558 1.7559 6.0183C1.75766 6.15103 1.81204 6.27762 1.90708 6.37027L4.7774 9.16871L4.09927 13.1203C4.08337 13.2122 4.09354 13.3067 4.12863 13.3932C4.16373 13.4796 4.22234 13.5545 4.29782 13.6093C4.3733 13.6641 4.46263 13.6967 4.55568 13.7033C4.64873 13.71 4.74178 13.6904 4.82427 13.6468L8.37271 11.7812L11.9211 13.6468C12.018 13.6984 12.1305 13.7156 12.2383 13.6968C12.5102 13.65 12.693 13.3921 12.6461 13.1203L11.968 9.16871L14.8383 6.37027C14.9165 6.29371 14.968 6.19371 14.9836 6.08433C15.0258 5.81089 14.8352 5.55777 14.5618 5.51715Z" fill="#FD8D03"/>
</svg>
