<svg width="16" height="17" viewBox="0 0 16 17" fill="none" xmlns="http://www.w3.org/2000/svg">
<path d="M8.00033 3.41675C8.70757 3.41675 9.38585 3.6977 9.88594 4.1978C10.386 4.69789 10.667 5.37617 10.667 6.08341C10.667 6.79066 10.386 7.46894 9.88594 7.96903C9.38585 8.46913 8.70757 8.75008 8.00033 8.75008C7.29308 8.75008 6.6148 8.46913 6.11471 7.96903C5.61461 7.46894 5.33366 6.79066 5.33366 6.08341C5.33366 5.37617 5.61461 4.69789 6.11471 4.1978C6.6148 3.6977 7.29308 3.41675 8.00033 3.41675ZM8.00033 10.0834C10.947 10.0834 13.3337 11.2767 13.3337 12.7501V14.0834H2.66699V12.7501C2.66699 11.2767 5.05366 10.0834 8.00033 10.0834Z" fill="#FCB700"/>
</svg>
