<svg width="34" height="34" viewBox="0 0 34 34" fill="none" xmlns="http://www.w3.org/2000/svg">
<path d="M28.058 7.38235L28.0572 7.38157C27.3456 6.68402 26.5066 6.12968 25.5858 5.74871L25.5845 5.74817C24.6293 5.35138 23.6048 5.14827 22.5705 5.15066L22.5682 5.15066C21.1142 5.15066 19.6974 5.54871 18.4671 6.29927L18.467 6.29928C18.1727 6.47885 17.8938 6.67562 17.6299 6.8896L17 7.40056L16.3701 6.8896C16.1062 6.67562 15.8273 6.47885 15.533 6.29928L15.5329 6.29927C14.3026 5.54871 12.8858 5.15066 11.4318 5.15066C10.383 5.15066 9.37135 5.35111 8.41544 5.74818L8.41436 5.74863C7.49008 6.13129 6.65808 6.68101 5.94249 7.38187L5.94113 7.38321C5.23126 8.07582 4.6642 8.901 4.27207 9.81197L28.058 7.38235ZM28.058 7.38235C28.7674 8.07618 29.3347 8.90164 29.7282 9.81255M28.058 7.38235L29.7282 9.81255M29.7282 9.81255C30.136 10.7603 30.3434 11.7636 30.3404 12.7972V12.8001C30.3404 13.7688 30.1426 14.8 29.7324 15.8727L29.7315 15.875C29.3916 16.7702 28.8891 17.7188 28.2353 18.6948L29.7282 9.81255ZM10.0549 23.5503L10.055 23.5504C11.561 24.9411 13.0636 26.1203 14.2074 26.9623C14.7785 27.3828 15.2583 27.7178 15.6017 27.9516C15.7734 28.0685 15.9107 28.1599 16.008 28.2238C16.0567 28.2558 16.0951 28.2808 16.1225 28.2985C16.1464 28.3139 16.1588 28.3217 16.162 28.3237C16.1629 28.3242 16.1631 28.3244 16.1628 28.3242L16.1707 28.3291L16.1785 28.3341L16.9635 28.8375C16.9636 28.8376 16.9638 28.8377 16.9639 28.8378C16.9843 28.8506 17.0123 28.8506 17.0327 28.8378C17.0329 28.8377 17.033 28.8376 17.0332 28.8375L17.8182 28.3341L17.8183 28.334C17.928 28.2637 20.9201 26.3378 23.9421 23.55C25.76 21.8717 27.2007 20.2371 28.2352 18.6949L10.0549 23.5503ZM10.0549 23.5503C8.23669 21.8717 6.79581 20.2369 5.76122 18.6945L10.0549 23.5503ZM5.76114 18.6944C5.10879 17.7205 4.60848 16.7712 4.2643 15.8727L5.76114 18.6944ZM3.65625 12.8001C3.65625 11.7643 3.86413 10.76 4.27204 9.81204L4.26411 15.8722C3.85398 14.7997 3.65625 13.7687 3.65625 12.8001Z" stroke="white" stroke-width="2"/>
</svg>
